<svg width="32" height="32" viewBox="0 0 32 32" fill="none" xmlns="http://www.w3.org/2000/svg">
<rect width="32" height="32" rx="5" fill="#059669"/>
<path d="M15.4119 10.9091V13.6364H7.52841V10.9091H15.4119ZM9.31818 7.77273H12.9489V19.9773C12.9489 20.3125 13 20.5739 13.1023 20.7614C13.2045 20.9432 13.3466 21.071 13.5284 21.1449C13.7159 21.2187 13.9318 21.2557 14.1761 21.2557C14.3466 21.2557 14.517 21.2415 14.6875 21.2131C14.858 21.179 14.9886 21.1534 15.0795 21.1364L15.6506 23.8381C15.4688 23.8949 15.2131 23.9602 14.8835 24.0341C14.554 24.1136 14.1534 24.1619 13.6818 24.179C12.8068 24.2131 12.0398 24.0966 11.3807 23.8295C10.7273 23.5625 10.2188 23.1477 9.85511 22.5852C9.49148 22.0227 9.3125 21.3125 9.31818 20.4545V7.77273ZM19.8991 24.2216C19.3366 24.2216 18.8537 24.0227 18.4503 23.625C18.0526 23.2216 17.8537 22.7386 17.8537 22.1761C17.8537 21.6193 18.0526 21.142 18.4503 20.7443C18.8537 20.3466 19.3366 20.1477 19.8991 20.1477C20.4446 20.1477 20.9219 20.3466 21.331 20.7443C21.7401 21.142 21.9446 21.6193 21.9446 22.1761C21.9446 22.5511 21.848 22.8949 21.6548 23.2074C21.4673 23.5142 21.2202 23.7614 20.9134 23.9489C20.6065 24.1307 20.2685 24.2216 19.8991 24.2216Z" fill="white"/>
</svg>
